<?xml version="1.0" encoding="UTF-8" standalone="no"?>
<!DOCTYPE svg PUBLIC "-//W3C//DTD SVG 1.1//EN"
 "http://www.w3.org/Graphics/SVG/1.1/DTD/svg11.dtd">
<!-- Generated by graphviz version 12.1.2 (20240928.0832)
 -->
<!-- Title: include/functions.h Pages: 1 -->
<svg width="460pt" height="138pt"
 viewBox="0.00 0.00 460.00 137.75" xmlns="http://www.w3.org/2000/svg" xmlns:xlink="http://www.w3.org/1999/xlink">
<g id="graph0" class="graph" transform="scale(1 1) rotate(0) translate(4 133.75)">
<title>include/functions.h</title>
<!-- Node1 -->
<g id="Node000001" class="node">
<title>Node1</title>
<g id="a_Node000001"><a xlink:title="Function declarations for Wi&#45;Fi handling, configuration, mDNS setup, RTC management,...">
<polygon fill="#999999" stroke="#666666" points="385.5,-129.75 288.5,-129.75 288.5,-110.5 385.5,-110.5 385.5,-129.75"/>
<text text-anchor="middle" x="337" y="-116.25" font-family="Helvetica,sans-Serif" font-size="10.00">include/functions.h</text>
</a>
</g>
</g>
<!-- Node2 -->
<g id="Node000002" class="node">
<title>Node2</title>
<g id="a_Node000002"><a xlink:href="variables_8h_source.html" target="_top" xlink:title=" ">
<polygon fill="white" stroke="#666666" points="280.25,-74.5 217.75,-74.5 217.75,-55.25 280.25,-55.25 280.25,-74.5"/>
<text text-anchor="middle" x="249" y="-61" font-family="Helvetica,sans-Serif" font-size="10.00">variables.h</text>
</a>
</g>
</g>
<!-- Node1&#45;&gt;Node2 -->
<g id="edge1_Node000001_Node000002" class="edge">
<title>Node1&#45;&gt;Node2</title>
<g id="a_edge1_Node000001_Node000002"><a xlink:title=" ">
<path fill="none" stroke="#63b8ff" d="M322.07,-110.09C308.8,-102.06 289.13,-90.16 273.55,-80.73"/>
<polygon fill="#63b8ff" stroke="#63b8ff" points="275.66,-77.92 265.3,-75.74 272.04,-83.91 275.66,-77.92"/>
</a>
</g>
</g>
<!-- Node8 -->
<g id="Node000008" class="node">
<title>Node8</title>
<g id="a_Node000008"><a xlink:title=" ">
<polygon fill="#e0e0e0" stroke="#999999" points="375.75,-74.5 298.25,-74.5 298.25,-55.25 375.75,-55.25 375.75,-74.5"/>
<text text-anchor="middle" x="337" y="-61" font-family="Helvetica,sans-Serif" font-size="10.00">ArduinoJson.h</text>
</a>
</g>
</g>
<!-- Node1&#45;&gt;Node8 -->
<g id="edge7_Node000001_Node000008" class="edge">
<title>Node1&#45;&gt;Node8</title>
<g id="a_edge7_Node000001_Node000008"><a xlink:title=" ">
<path fill="none" stroke="#63b8ff" d="M337,-110.33C337,-103.82 337,-94.67 337,-86.37"/>
<polygon fill="#63b8ff" stroke="#63b8ff" points="340.5,-86.37 337,-76.37 333.5,-86.37 340.5,-86.37"/>
</a>
</g>
</g>
<!-- Node9 -->
<g id="Node000009" class="node">
<title>Node9</title>
<g id="a_Node000009"><a xlink:title=" ">
<polygon fill="#e0e0e0" stroke="#999999" points="452,-74.5 394,-74.5 394,-55.25 452,-55.25 452,-74.5"/>
<text text-anchor="middle" x="423" y="-61" font-family="Helvetica,sans-Serif" font-size="10.00">LittleFS.h</text>
</a>
</g>
</g>
<!-- Node1&#45;&gt;Node9 -->
<g id="edge8_Node000001_Node000009" class="edge">
<title>Node1&#45;&gt;Node9</title>
<g id="a_edge8_Node000001_Node000009"><a xlink:title=" ">
<path fill="none" stroke="#63b8ff" d="M351.59,-110.09C364.44,-102.14 383.41,-90.39 398.57,-81"/>
<polygon fill="#63b8ff" stroke="#63b8ff" points="400.39,-83.99 407.05,-75.75 396.71,-78.04 400.39,-83.99"/>
</a>
</g>
</g>
<!-- Node3 -->
<g id="Node000003" class="node">
<title>Node3</title>
<g id="a_Node000003"><a xlink:title=" ">
<polygon fill="#e0e0e0" stroke="#999999" points="118,-19.25 0,-19.25 0,0 118,0 118,-19.25"/>
<text text-anchor="middle" x="59" y="-5.75" font-family="Helvetica,sans-Serif" font-size="10.00">ESPAsyncWebServer.h</text>
</a>
</g>
</g>
<!-- Node2&#45;&gt;Node3 -->
<g id="edge2_Node000002_Node000003" class="edge">
<title>Node2&#45;&gt;Node3</title>
<g id="a_edge2_Node000002_Node000003"><a xlink:title=" ">
<path fill="none" stroke="#63b8ff" d="M217.63,-55.08C186.14,-46.26 137.41,-32.6 102.27,-22.75"/>
<polygon fill="#63b8ff" stroke="#63b8ff" points="103.41,-19.44 92.83,-20.11 101.52,-26.18 103.41,-19.44"/>
</a>
</g>
</g>
<!-- Node4 -->
<g id="Node000004" class="node">
<title>Node4</title>
<g id="a_Node000004"><a xlink:title=" ">
<polygon fill="#e0e0e0" stroke="#999999" points="204.25,-19.25 135.75,-19.25 135.75,0 204.25,0 204.25,-19.25"/>
<text text-anchor="middle" x="170" y="-5.75" font-family="Helvetica,sans-Serif" font-size="10.00">NTPClient.h</text>
</a>
</g>
</g>
<!-- Node2&#45;&gt;Node4 -->
<g id="edge3_Node000002_Node000004" class="edge">
<title>Node2&#45;&gt;Node4</title>
<g id="a_edge3_Node000002_Node000004"><a xlink:title=" ">
<path fill="none" stroke="#63b8ff" d="M235.6,-54.84C223.91,-46.96 206.7,-35.36 192.84,-26.02"/>
<polygon fill="#63b8ff" stroke="#63b8ff" points="194.97,-23.24 184.72,-20.55 191.06,-29.04 194.97,-23.24"/>
</a>
</g>
</g>
<!-- Node5 -->
<g id="Node000005" class="node">
<title>Node5</title>
<g id="a_Node000005"><a xlink:title=" ">
<polygon fill="#e0e0e0" stroke="#999999" points="275.38,-19.25 222.62,-19.25 222.62,0 275.38,0 275.38,-19.25"/>
<text text-anchor="middle" x="249" y="-5.75" font-family="Helvetica,sans-Serif" font-size="10.00">RTClib.h</text>
</a>
</g>
</g>
<!-- Node2&#45;&gt;Node5 -->
<g id="edge4_Node000002_Node000005" class="edge">
<title>Node2&#45;&gt;Node5</title>
<g id="a_edge4_Node000002_Node000005"><a xlink:title=" ">
<path fill="none" stroke="#63b8ff" d="M249,-55.08C249,-48.57 249,-39.42 249,-31.12"/>
<polygon fill="#63b8ff" stroke="#63b8ff" points="252.5,-31.12 249,-21.12 245.5,-31.12 252.5,-31.12"/>
</a>
</g>
</g>
<!-- Node6 -->
<g id="Node000006" class="node">
<title>Node6</title>
<g id="a_Node000006"><a xlink:title=" ">
<polygon fill="#e0e0e0" stroke="#999999" points="333,-19.25 293,-19.25 293,0 333,0 333,-19.25"/>
<text text-anchor="middle" x="313" y="-5.75" font-family="Helvetica,sans-Serif" font-size="10.00">SPI.h</text>
</a>
</g>
</g>
<!-- Node2&#45;&gt;Node6 -->
<g id="edge5_Node000002_Node000006" class="edge">
<title>Node2&#45;&gt;Node6</title>
<g id="a_edge5_Node000002_Node000006"><a xlink:title=" ">
<path fill="none" stroke="#63b8ff" d="M259.86,-54.84C269.11,-47.15 282.62,-35.9 293.71,-26.68"/>
<polygon fill="#63b8ff" stroke="#63b8ff" points="295.69,-29.58 301.14,-20.49 291.21,-24.2 295.69,-29.58"/>
</a>
</g>
</g>
<!-- Node7 -->
<g id="Node000007" class="node">
<title>Node7</title>
<g id="a_Node000007"><a xlink:title=" ">
<polygon fill="#e0e0e0" stroke="#999999" points="412.5,-19.25 351.5,-19.25 351.5,0 412.5,0 412.5,-19.25"/>
<text text-anchor="middle" x="382" y="-5.75" font-family="Helvetica,sans-Serif" font-size="10.00">WiFiUdp.h</text>
</a>
</g>
</g>
<!-- Node2&#45;&gt;Node7 -->
<g id="edge6_Node000002_Node000007" class="edge">
<title>Node2&#45;&gt;Node7</title>
<g id="a_edge6_Node000002_Node000007"><a xlink:title=" ">
<path fill="none" stroke="#63b8ff" d="M271.56,-54.84C292.77,-46.35 324.77,-33.54 348.88,-23.89"/>
<polygon fill="#63b8ff" stroke="#63b8ff" points="349.94,-27.23 357.92,-20.27 347.34,-20.73 349.94,-27.23"/>
</a>
</g>
</g>
</g>
</svg>
